<?xml version="1.0" encoding="UTF-8"?>
<svg id="Layer_2" data-name="Layer 2" xmlns="http://www.w3.org/2000/svg" viewBox="0 0 245.36 193.43">
  <g id="Layer_1-2" data-name="Layer 1">
    <g>
      <polygon points="140.21 0 140.21 140 140.03 140 140.03 140.93 70.69 140.93 35.7 105.93 105.21 105.93 105.21 35.45 0 35.45 0 .45 105.21 .45 105.21 0 140.21 0"/>
      <polygon points="35.48 53.43 35.48 193.43 .48 193.43 .48 87.85 34.9 53.43 35.48 53.43"/>
      <polygon points="245.36 193.43 245.36 53.43 245.17 53.43 245.17 52.5 175.84 52.5 140.85 87.5 210.36 87.5 210.36 157.97 105.15 157.97 105.15 192.98 210.36 192.98 210.36 193.43 245.36 193.43"/>
    </g>
  </g>
</svg>